<?xml version="1.0" encoding="utf-8"?>
<!-- Generator: Adobe Illustrator 17.0.2, SVG Export Plug-In . SVG Version: 6.00 Build 0)  -->
<!DOCTYPE svg PUBLIC "-//W3C//DTD SVG 1.1//EN" "http://www.w3.org/Graphics/SVG/1.1/DTD/svg11.dtd">
<svg version="1.1" id="Layer_1" xmlns="http://www.w3.org/2000/svg" xmlns:xlink="http://www.w3.org/1999/xlink" x="0px" y="0px"
	 width="595px" height="842px" viewBox="0 0 595 842" enable-background="new 0 0 595 842" xml:space="preserve">
<g>
	<g>
		<path d="M482.916,178.145c-0.266-0.805-0.228-2.223-0.32-3.348c-0.022-0.389,0.012-0.783-0.145-1.223
			c-0.158-0.44-0.432-0.925-0.717-1.242c-0.285-0.317-0.581-0.466-0.898-0.503c0.599-0.206,1.122-0.616,1.501-1.224
			c0.379-0.607,0.611-1.412,0.6-2.275c-0.013-0.864-0.271-1.786-0.731-2.468c-0.99-1.456-2.737-1.704-4.265-1.63h-6.438v14.848H474
			v-6.099h3.732c0.409,0.002,1.088-0.055,1.769,0.475c0.899,1.064,0.502,2.462,0.659,3.651c0.014,0.708,0.083,1.378,0.379,1.973
			h2.803C483.452,178.499,483.058,178.596,482.916,178.145z M479.632,170.38c-0.309,0.219-0.722,0.349-1.095,0.424
			c-1.368,0.131-3.038,0.042-4.558,0.062v-4.52h3.587c0.944,0.014,2.037-0.025,2.671,1.23
			C480.561,168.557,480.574,169.612,479.632,170.38z"/>
		<path d="M488.154,165.343c-1.093-1.892-2.693-3.492-4.586-4.585c-1.894-1.093-4.079-1.678-6.265-1.678
			c-2.186,0-4.372,0.585-6.265,1.678c-1.894,1.092-3.493,2.692-4.587,4.585c-1.093,1.892-1.679,4.078-1.679,6.263
			c0,2.186,0.586,4.371,1.679,6.263c1.094,1.893,2.693,3.492,4.587,4.585c1.892,1.093,4.078,1.678,6.265,1.678
			c2.186,0,4.371-0.585,6.265-1.678c1.892-1.093,3.493-2.692,4.586-4.585c1.093-1.893,1.679-4.078,1.679-6.263
			C489.833,169.421,489.247,167.236,488.154,165.343z M486.651,177.055c-0.93,1.605-2.29,2.963-3.898,3.89
			c-1.609,0.927-3.467,1.424-5.324,1.424c-1.858,0-3.716-0.497-5.325-1.424c-1.608-0.927-2.969-2.284-3.898-3.89
			c-0.929-1.606-1.427-3.46-1.427-5.315c0-1.854,0.498-3.708,1.427-5.314c0.93-1.606,2.29-2.963,3.898-3.89
			c1.609-0.927,3.467-1.424,5.325-1.424c1.857,0,3.715,0.497,5.324,1.424c1.608,0.927,2.969,2.284,3.898,3.89
			c0.929,1.606,1.427,3.46,1.427,5.314C488.078,173.594,487.58,175.449,486.651,177.055z"/>
	</g>
	<path fill="#333B97" d="M166.025,579.388c-8.794,0-17.592-1.755-25.718-5.115c-8.126-3.36-15.582-8.347-21.802-14.567
		c-6.221-6.22-11.207-13.675-14.568-21.801c-3.36-8.126-5.116-16.923-5.116-25.716V234.836c0-8.793,1.755-17.591,5.116-25.717
		c3.361-8.126,8.347-15.581,14.568-21.801c6.221-6.22,13.676-11.206,21.802-14.567c8.126-3.36,16.924-5.115,25.718-5.115h254.153
		c8.793,0,17.592,1.755,25.718,5.115c8.127,3.36,15.582,8.347,21.803,14.567c6.221,6.22,11.207,13.675,14.567,21.801
		c3.36,8.126,5.116,16.924,5.116,25.717v277.352c0,8.793-1.756,17.59-5.116,25.716c-3.36,8.126-8.347,15.581-14.567,21.801
		c-6.221,6.221-13.676,11.207-21.803,14.567c-8.126,3.36-16.925,5.115-25.718,5.115H166.025"/>
	<polyline fill="#FFFFFF" points="225.287,410.167 180.077,564.115 299.822,466.98 428.121,564.115 374.969,410.167 
		476.386,325.251 346.254,325.251 299.822,185.964 252.168,325.251 113.484,325.251 225.287,410.167 	"/>
	<path fill="#FFFFFF" d="M110.429,630.704H79.882c-0.53,0.087-0.988-0.088-1.693,1.131c-0.091,0.222-0.139,0.462-0.139,0.701v27.491
		c-0.068,0.593,0.558,1.53,1.131,1.693c0.222,0.092,0.461,0.14,0.701,0.14h30.547v20.159H76.216
		c-2.402,0.001-4.806-0.481-7.022-1.398c-2.216-0.916-4.245-2.275-5.938-3.969c-1.694-1.693-3.053-3.722-3.97-5.938
		c-0.917-2.216-1.398-4.619-1.398-7.022v-35.432c0-2.403,0.481-4.807,1.398-7.022c0.917-2.216,2.276-4.244,3.97-5.938
		c1.693-1.693,3.722-3.053,5.938-3.969c2.216-0.917,4.62-1.399,7.022-1.399h34.213V630.704L110.429,630.704z"/>
	<path fill="#FFFFFF" d="M134.867,682.02c-2.403,0-4.806-0.481-7.023-1.398c-2.216-0.916-4.244-2.275-5.938-3.969
		c-1.693-1.693-3.052-3.722-3.969-5.938c-0.917-2.216-1.399-4.619-1.399-7.022v-35.432c0-2.403,0.482-4.807,1.399-7.022
		c0.917-2.216,2.276-4.244,3.969-5.938c1.694-1.693,3.722-3.053,5.938-3.969c2.216-0.917,4.62-1.399,7.023-1.399h20.161
		c2.402,0,4.806,0.482,7.023,1.399c2.216,0.916,4.244,2.275,5.938,3.969c1.694,1.693,3.053,3.722,3.97,5.938
		c0.917,2.216,1.398,4.619,1.398,7.022v35.432c0,2.403-0.481,4.807-1.398,7.022c-0.917,2.216-2.276,4.244-3.97,5.938
		c-1.693,1.693-3.722,3.053-5.938,3.969c-2.216,0.917-4.62,1.398-7.023,1.398H134.867 M153.195,632.536
		c0.068-0.592-0.558-1.529-1.131-1.692c-0.222-0.092-0.462-0.14-0.701-0.14h-12.83c-0.592-0.068-1.53,0.558-1.693,1.131
		c-0.091,0.222-0.14,0.462-0.14,0.701v26.88c-0.068,0.593,0.558,1.53,1.132,1.693c0.222,0.092,0.462,0.14,0.701,0.14h12.83
		c0.592,0.068,1.53-0.558,1.693-1.131c0.092-0.222,0.14-0.462,0.14-0.702V632.536L153.195,632.536z"/>
	<path fill="#FFFFFF" d="M216.734,682.021v-49.483c0.068-0.593-0.558-1.53-1.131-1.693c-0.222-0.092-0.462-0.14-0.702-0.14h-12.219
		c-0.53,0.087-0.988-0.088-1.693,1.131c-0.092,0.222-0.14,0.462-0.14,0.701v49.483h-20.161v-71.476h36.656
		c2.403,0,4.806,0.482,7.022,1.398c2.216,0.917,4.244,2.276,5.938,3.97c1.693,1.693,3.052,3.722,3.969,5.938
		c0.917,2.216,1.398,4.619,1.398,7.021v53.149H216.734"/>
	<polyline fill="#FFFFFF" points="277.828,682.02 260.111,682.02 260.111,682.02 257.667,682.02 235.673,610.544 255.834,610.544 
		268.97,653.231 282.105,610.544 302.266,610.544 280.271,682.02 277.828,682.02 277.828,682.02 	"/>
	<path fill="#FFFFFF" d="M355.418,636.202v18.938h-30.547c-0.53,0.087-0.988-0.087-1.693,1.132c-0.092,0.222-0.14,0.462-0.14,0.701
		v2.443c-0.068,0.593,0.558,1.53,1.132,1.693c0.222,0.092,0.461,0.14,0.701,0.14h30.547v20.771h-34.213
		c-2.402,0-4.807-0.481-7.022-1.398c-2.216-0.917-4.244-2.275-5.938-3.969c-1.693-1.693-3.053-3.722-3.97-5.938
		c-0.916-2.216-1.398-4.619-1.398-7.022V628.26c0-2.402,0.482-4.806,1.398-7.022c0.917-2.216,2.276-4.244,3.97-5.938
		c1.693-1.693,3.722-3.053,5.938-3.969c2.216-0.917,4.62-1.399,7.022-1.399h34.213v20.771h-30.547
		c-0.53,0.087-0.988-0.088-1.693,1.131c-0.248,1.047-0.248,2.093,0,3.235c0.441,0.915,1.063,1.102,1.693,1.132H355.418"/>
	<path fill="#FFFFFF" d="M400.628,682.021H421.4l-12.219-28.102c2.642-2.024,5.282-4.05,6.708-6.697
		c1.426-2.648,1.845-5.91,1.845-9.185v-9.164c0-2.397-0.478-4.797-1.395-7.014c-0.917-2.216-2.276-4.249-3.974-5.945
		c-1.696-1.696-3.729-3.057-5.945-3.973c-2.217-0.917-4.616-1.396-7.015-1.396H362.75v71.476h20.161v-32.988h2.443L400.628,682.021
		 M382.911,636.202v-4.276h12.219c1.215,0,2.688-0.111,3.452,0.682c0.765,0.792,0.765,2.121,0,2.913
		c-0.765,0.792-2.237,0.682-3.452,0.682H382.911"/>
	<path fill="#FFFFFF" d="M478.219,609.933v20.771H447.06c-0.53,0.087-0.989-0.088-1.693,1.131c-0.245,0.842-0.249,1.688,0,2.625
		c0.44,0.915,1.064,1.1,1.693,1.131h18.326c1.579,0,3.159,0.185,4.604,0.519c1.445,0.334,2.755,0.822,3.866,1.396
		c1.111,0.573,2.023,1.231,2.765,1.968c0.741,0.737,1.31,1.553,1.8,2.594c0.49,1.04,0.899,2.306,1.189,4.015
		c0.289,1.709,0.44,3.861,0.44,6.006v9.162c0,2.74-0.089,5.488-0.327,7.542c-0.238,2.055-0.581,3.414-0.985,4.541
		c-0.404,1.128-0.868,2.023-1.47,2.838c-0.602,0.815-1.34,1.552-2.243,2.244c-0.903,0.691-1.971,1.34-3.173,1.881
		c-2.487,1.125-5.441,1.728-8.298,1.725h-39.711v-20.771h34.213c0.53-0.087,0.988,0.088,1.693-1.131
		c0.248-1.047,0.248-2.093,0-3.235c-0.44-0.915-1.064-1.102-1.693-1.132h-15.274c-2.753,0-5.516-0.157-7.635-0.478
		c-2.119-0.321-3.595-0.775-4.783-1.305c-1.189-0.528-2.09-1.132-2.844-1.874c-0.754-0.741-1.36-1.622-1.893-2.777
		c-0.532-1.156-0.988-2.587-1.31-4.616c-0.321-2.03-0.475-4.659-0.475-7.278v-12.219c-0.002-2.434,0.535-5.048,1.681-7.565
		c0.545-1.194,1.21-2.311,1.912-3.261c0.702-0.95,1.441-1.735,2.165-2.328c0.725-0.594,1.436-0.995,2.288-1.328
		c0.853-0.332,1.845-0.595,3.487-0.717c1.642-0.122,3.933-0.103,5.277-0.092c1.343,0.011,1.737,0.02,2.133,0.02H478.219"/>
	<path fill="#FFFFFF" d="M537.479,636.202v18.938h-30.547c-0.53,0.087-0.988-0.087-1.693,1.132c-0.092,0.222-0.14,0.462-0.14,0.701
		v2.443c-0.068,0.593,0.559,1.53,1.132,1.693c0.222,0.092,0.462,0.14,0.701,0.14h30.547v20.771h-34.213
		c-2.402,0-4.806-0.481-7.023-1.398c-2.216-0.917-4.244-2.275-5.938-3.969c-1.693-1.693-3.053-3.722-3.969-5.938
		c-0.917-2.216-1.399-4.619-1.399-7.022V628.26c0-2.402,0.482-4.806,1.399-7.022c0.916-2.216,2.275-4.244,3.969-5.938
		c1.693-1.693,3.722-3.053,5.938-3.969c2.217-0.917,4.62-1.399,7.023-1.399h34.213v20.771h-30.547
		c-0.53,0.087-0.988-0.088-1.693,1.131c-0.248,1.047-0.248,2.093,0,3.235c0.441,0.915,1.063,1.102,1.693,1.132H537.479"/>
</g>
</svg>
